<mxfile host="app.diagrams.net" modified="2024-04-10T11:35:31.560Z" agent="Mozilla/5.0 (Macintosh; Intel Mac OS X 10_15_7) AppleWebKit/537.36 (KHTML, like Gecko) Chrome/123.0.0.0 Safari/537.36" etag="FyrHcTujqpDkaHeXlh6m" version="24.2.3" type="github">
  <diagram name="Страница — 1" id="vi19f8lS2vBhVuuNlb_r">
    <mxGraphModel dx="843" dy="333" grid="1" gridSize="10" guides="1" tooltips="1" connect="1" arrows="1" fold="1" page="1" pageScale="1" pageWidth="827" pageHeight="1169" math="0" shadow="0">
      <root>
        <mxCell id="0" />
        <mxCell id="1" parent="0" />
        <mxCell id="tZ3W8repLXuKIsRcz-2d-1" value="" style="shape=umlActor;verticalLabelPosition=bottom;verticalAlign=top;html=1;outlineConnect=0;" vertex="1" parent="1">
          <mxGeometry x="44" y="210" width="30" height="60" as="geometry" />
        </mxCell>
        <mxCell id="tZ3W8repLXuKIsRcz-2d-2" value="USER" style="text;html=1;align=center;verticalAlign=middle;whiteSpace=wrap;rounded=0;" vertex="1" parent="1">
          <mxGeometry x="29" y="180" width="60" height="30" as="geometry" />
        </mxCell>
        <mxCell id="tZ3W8repLXuKIsRcz-2d-3" value="" style="shape=flexArrow;endArrow=classic;html=1;rounded=0;" edge="1" parent="1">
          <mxGeometry width="50" height="50" relative="1" as="geometry">
            <mxPoint x="94" y="239.6" as="sourcePoint" />
            <mxPoint x="224" y="240" as="targetPoint" />
          </mxGeometry>
        </mxCell>
        <mxCell id="tZ3W8repLXuKIsRcz-2d-4" value="Регистрация" style="text;html=1;align=center;verticalAlign=middle;whiteSpace=wrap;rounded=0;" vertex="1" parent="1">
          <mxGeometry x="124" y="210" width="60" height="30" as="geometry" />
        </mxCell>
        <mxCell id="tZ3W8repLXuKIsRcz-2d-6" value="&lt;div style=&quot;text-align: left;&quot;&gt;&lt;b style=&quot;font-size: 14px; background-color: initial;&quot;&gt;Device gem&lt;/b&gt;&lt;/div&gt;&lt;div style=&quot;text-align: justify;&quot;&gt;&lt;span style=&quot;background-color: initial;&quot;&gt;Вход с указанием электронной почти и пароля. username (уникальное у каждого пользователя)&lt;/span&gt;&lt;/div&gt;&lt;div&gt;&lt;br&gt;&lt;/div&gt;" style="text;html=1;align=center;verticalAlign=middle;whiteSpace=wrap;rounded=0;" vertex="1" parent="1">
          <mxGeometry x="234" y="150" width="180" height="70" as="geometry" />
        </mxCell>
        <mxCell id="tZ3W8repLXuKIsRcz-2d-7" value="&lt;font style=&quot;font-size: 24px;&quot;&gt;&lt;b&gt;ИЛИ&lt;/b&gt;&lt;/font&gt;" style="text;html=1;align=center;verticalAlign=middle;whiteSpace=wrap;rounded=0;" vertex="1" parent="1">
          <mxGeometry x="307" y="225" width="60" height="30" as="geometry" />
        </mxCell>
        <mxCell id="tZ3W8repLXuKIsRcz-2d-9" value="&lt;font style=&quot;&quot;&gt;&lt;span style=&quot;font-weight: bold; font-size: 14px;&quot;&gt;Omniauth-google-oauth2 gem&lt;/span&gt;&lt;br&gt;&lt;div style=&quot;text-align: justify;&quot;&gt;&lt;span style=&quot;background-color: initial;&quot;&gt;Вход через google-аккаунт и username&lt;/span&gt;&lt;/div&gt;&lt;/font&gt;" style="text;html=1;align=left;verticalAlign=middle;whiteSpace=wrap;rounded=0;" vertex="1" parent="1">
          <mxGeometry x="234" y="260" width="206" height="55" as="geometry" />
        </mxCell>
        <mxCell id="tZ3W8repLXuKIsRcz-2d-10" value="" style="shape=flexArrow;endArrow=classic;html=1;rounded=0;" edge="1" parent="1">
          <mxGeometry width="50" height="50" relative="1" as="geometry">
            <mxPoint x="444" y="239.2" as="sourcePoint" />
            <mxPoint x="644" y="239.2" as="targetPoint" />
          </mxGeometry>
        </mxCell>
        <mxCell id="tZ3W8repLXuKIsRcz-2d-11" value="Callback - email confirmation" style="text;html=1;align=center;verticalAlign=middle;whiteSpace=wrap;rounded=0;" vertex="1" parent="1">
          <mxGeometry x="450" y="210" width="170" height="30" as="geometry" />
        </mxCell>
        <mxCell id="tZ3W8repLXuKIsRcz-2d-12" value="Ожидание подтверждения" style="text;html=1;align=center;verticalAlign=middle;whiteSpace=wrap;rounded=0;" vertex="1" parent="1">
          <mxGeometry x="440" y="240" width="190" height="30" as="geometry" />
        </mxCell>
        <mxCell id="tZ3W8repLXuKIsRcz-2d-13" value="" style="shape=image;html=1;verticalAlign=top;verticalLabelPosition=bottom;labelBackgroundColor=#ffffff;imageAspect=0;aspect=fixed;image=https://cdn3.iconfinder.com/data/icons/miscellaneous-80/60/check-128.png" vertex="1" parent="1">
          <mxGeometry x="705.5" y="140" width="29" height="29" as="geometry" />
        </mxCell>
        <mxCell id="tZ3W8repLXuKIsRcz-2d-14" value="&lt;font style=&quot;font-size: 14px;&quot;&gt;&lt;b&gt;Подтверждение прошло&lt;/b&gt;&lt;/font&gt;&lt;br&gt;Возможность добавлять/покупать товары" style="text;html=1;align=center;verticalAlign=middle;whiteSpace=wrap;rounded=0;" vertex="1" parent="1">
          <mxGeometry x="630" y="180" width="180" height="30" as="geometry" />
        </mxCell>
        <mxCell id="tZ3W8repLXuKIsRcz-2d-15" value="" style="sketch=0;aspect=fixed;pointerEvents=1;shadow=0;dashed=0;html=1;strokeColor=none;labelPosition=center;verticalLabelPosition=bottom;verticalAlign=top;align=center;shape=mxgraph.mscae.enterprise.not_allowed;fillColor=#EA1C24;" vertex="1" parent="1">
          <mxGeometry x="717" y="350" width="30" height="30" as="geometry" />
        </mxCell>
        <mxCell id="tZ3W8repLXuKIsRcz-2d-16" value="&lt;font style=&quot;font-size: 14px;&quot;&gt;&lt;b&gt;Подтверждения не было&amp;nbsp;&lt;/b&gt;&lt;/font&gt;&lt;div&gt;&lt;font style=&quot;font-size: 12px;&quot;&gt;Нельзя добавить товар в корзину, нет страницы пользователя&amp;nbsp;&lt;/font&gt;&lt;/div&gt;&lt;div&gt;&lt;font style=&quot;font-size: 12px;&quot;&gt;(нельзя добавлять товар)&lt;/font&gt;&lt;/div&gt;" style="text;html=1;align=center;verticalAlign=middle;whiteSpace=wrap;rounded=0;" vertex="1" parent="1">
          <mxGeometry x="637" y="270" width="190" height="80" as="geometry" />
        </mxCell>
      </root>
    </mxGraphModel>
  </diagram>
</mxfile>
